<svg width="60" height="61" viewBox="0 0 60 61" fill="none" xmlns="http://www.w3.org/2000/svg">
<circle cx="30" cy="30.5" r="29.3617" fill="white" stroke="#CBD0DC" stroke-width="1.2766"/>
<path d="M24.4464 39.4798H22.0974C18.5006 39.2229 16.8857 36.458 16.8857 33.999C16.8857 31.5399 18.5006 28.7628 22.0362 28.5181C22.5378 28.4692 22.9782 28.8607 23.0149 29.3745C23.0516 29.8761 22.6724 30.3165 22.1586 30.3532C19.7852 30.5245 18.7208 32.3107 18.7208 34.0112C18.7208 35.7117 19.7852 37.4979 22.1586 37.6692H24.4464C24.948 37.6692 25.3639 38.0852 25.3639 38.5868C25.3639 39.0883 24.948 39.4798 24.4464 39.4798Z" fill="#292D32"/>
<path d="M35.7132 39.4798C35.6887 39.4798 35.6765 39.4798 35.652 39.4798C35.1505 39.4798 34.6856 39.0638 34.6856 38.5622C34.6856 38.0362 35.0771 37.6447 35.5909 37.6447C37.0957 37.6447 38.4414 37.1186 39.4936 36.1766C41.4021 34.5128 41.5244 32.1149 41.0106 30.4266C40.4967 28.7505 39.0653 26.8298 36.5696 26.5239C36.1659 26.475 35.8478 26.1692 35.7744 25.7654C35.285 22.8293 33.7068 20.7984 31.309 20.0644C28.8377 19.2936 25.9504 20.0521 24.152 21.9362C22.4025 23.759 21.9988 26.316 23.0143 29.1298C23.1855 29.6069 22.9409 30.133 22.4638 30.3042C21.9867 30.4755 21.4606 30.2308 21.2893 29.7537C20.0537 26.3037 20.6164 23.0005 22.8308 20.6761C25.0941 18.3027 28.7276 17.3606 31.8473 18.3149C34.71 19.1957 36.7286 21.5569 37.4627 24.8356C39.9584 25.3984 41.9648 27.2947 42.76 29.9128C43.6286 32.7633 42.8457 35.6995 40.7047 37.559C39.3467 38.7825 37.5728 39.4798 35.7132 39.4798Z" fill="#292D32"/>
<path d="M30.0004 43.0766C27.5414 43.0766 25.2414 41.7676 23.9813 39.6511C23.8467 39.4431 23.7121 39.1984 23.602 38.9293C23.1861 38.0607 22.9658 37.0697 22.9658 36.0421C22.9658 32.1639 26.1222 29.0075 30.0004 29.0075C33.8786 29.0075 37.035 32.1639 37.035 36.0421C37.035 37.0819 36.8148 38.0607 36.3744 38.966C36.2765 39.1984 36.1419 39.4431 35.9951 39.6756C34.7595 41.7676 32.4594 43.0766 30.0004 43.0766ZM30.0004 30.8426C27.1376 30.8426 24.8009 33.1793 24.8009 36.0421C24.8009 36.8006 24.96 37.5101 25.2658 38.1585C25.3637 38.3665 25.4493 38.5378 25.5472 38.6968C26.477 40.275 28.1775 41.2415 29.9881 41.2415C31.7988 41.2415 33.4993 40.275 34.4169 38.7213C34.527 38.5378 34.6249 38.3665 34.6983 38.1952C35.0286 37.5224 35.1876 36.8128 35.1876 36.0543C35.1999 33.1793 32.8632 30.8426 30.0004 30.8426Z" fill="#292D32"/>
<path d="M29.3024 38.1707C29.07 38.1707 28.8376 38.0851 28.6541 37.9015L27.4428 36.6904C27.0881 36.3356 27.0881 35.7484 27.4428 35.3936C27.7976 35.0388 28.3849 35.0388 28.7397 35.3936L29.3269 35.9808L31.2844 34.1702C31.6636 33.8276 32.2386 33.8521 32.5812 34.2191C32.9237 34.5861 32.8993 35.1734 32.5323 35.5159L29.9264 37.926C29.7429 38.0851 29.5227 38.1707 29.3024 38.1707Z" fill="#292D32"/>
</svg>
