<svg width="24" height="24" viewBox="0 0 24 24" fill="none" xmlns="http://www.w3.org/2000/svg">
<path d="M8.68637 4L11.2934 1.393C11.4809 1.20553 11.7352 1.10021 12.0004 1.10021C12.2655 1.10021 12.5198 1.20553 12.7074 1.393L15.3144 4H19.0004C19.2656 4 19.5199 4.10536 19.7075 4.29289C19.895 4.48043 20.0004 4.73478 20.0004 5V8.686L22.6074 11.293C22.7948 11.4805 22.9002 11.7348 22.9002 12C22.9002 12.2652 22.7948 12.5195 22.6074 12.707L20.0004 15.314V19C20.0004 19.2652 19.895 19.5196 19.7075 19.7071C19.5199 19.8946 19.2656 20 19.0004 20H15.3144L12.7074 22.607C12.5198 22.7945 12.2655 22.8998 12.0004 22.8998C11.7352 22.8998 11.4809 22.7945 11.2934 22.607L8.68637 20H5.00037C4.73516 20 4.4808 19.8946 4.29327 19.7071C4.10573 19.5196 4.00037 19.2652 4.00037 19V15.314L1.39337 12.707C1.2059 12.5195 1.10059 12.2652 1.10059 12C1.10059 11.7348 1.2059 11.4805 1.39337 11.293L4.00037 8.686V5C4.00037 4.73478 4.10573 4.48043 4.29327 4.29289C4.4808 4.10536 4.73516 4 5.00037 4H8.68637ZM6.00037 6V9.515L3.51537 12L6.00037 14.485V18H9.51537L12.0004 20.485L14.4854 18H18.0004V14.485L20.4854 12L18.0004 9.515V6H14.4854L12.0004 3.515L9.51537 6H6.00037ZM12.0004 16C10.9395 16 9.92209 15.5786 9.17195 14.8284C8.4218 14.0783 8.00037 13.0609 8.00037 12C8.00037 10.9391 8.4218 9.92172 9.17195 9.17157C9.92209 8.42143 10.9395 8 12.0004 8C13.0612 8 14.0787 8.42143 14.8288 9.17157C15.5789 9.92172 16.0004 10.9391 16.0004 12C16.0004 13.0609 15.5789 14.0783 14.8288 14.8284C14.0787 15.5786 13.0612 16 12.0004 16ZM12.0004 14C12.5308 14 13.0395 13.7893 13.4146 13.4142C13.7897 13.0391 14.0004 12.5304 14.0004 12C14.0004 11.4696 13.7897 10.9609 13.4146 10.5858C13.0395 10.2107 12.5308 10 12.0004 10C11.4699 10 10.9612 10.2107 10.5862 10.5858C10.2111 10.9609 10.0004 11.4696 10.0004 12C10.0004 12.5304 10.2111 13.0391 10.5862 13.4142C10.9612 13.7893 11.4699 14 12.0004 14Z" fill="white"/>
</svg>
